<svg width="50" height="50" fill="none" xmlns="http://www.w3.org/2000/svg">
  <g clip-path="url(#a)">
    <g clip-path="url(#b)">
      <rect width="50" height="50" rx="25" fill="#fff" />
      <path
        d="M-.217.027C-4.76 4.747-3.83 9.76-3.83 24.99c0 12.649-2.208 25.329 9.345 28.314 3.607.928 35.57.928 39.172-.005 4.81-1.24 8.723-5.141 9.258-11.942.075-.95.075-31.767-.002-32.735-.569-7.245-5.03-11.42-10.907-12.266-1.347-.195-1.616-.253-8.528-.265C9.993-3.896 4.62-4.987-.217.027Z"
        fill="url(#c)" />
      <path
        d="M25 8.016c-6.963 0-13.575-.619-16.1 5.858-1.044 2.675-.892 6.15-.892 11.124 0 4.365-.14 8.467.891 11.121 2.52 6.48 9.186 5.86 16.098 5.86 6.667 0 13.542.694 16.099-5.86 1.045-2.702.891-6.124.891-11.121 0-6.634.367-10.917-2.853-14.132-3.26-3.258-7.669-2.85-14.141-2.85H25Zm-1.522 3.06C38.002 11.053 39.85 9.44 38.83 31.854c-.363 7.927-6.403 7.057-13.829 7.057-13.539 0-13.928-.387-13.928-13.921 0-13.691 1.074-13.906 12.404-13.917v.003Zm10.593 2.82a2.038 2.038 0 1 0-.001 4.075 2.038 2.038 0 0 0 .001-4.076Zm-9.07 2.381c-4.82 0-8.726 3.905-8.726 8.72 0 4.816 3.906 8.72 8.725 8.72 4.82 0 8.724-3.904 8.724-8.72A8.722 8.722 0 0 0 25 16.278Zm0 3.06c7.488 0 7.498 11.321 0 11.321-7.487 0-7.499-11.32 0-11.32Z"
        fill="#fff" />
    </g>
  </g>
  <defs>
    <clipPath id="a">
      <path fill="#fff" d="M0 0h50v50H0z" />
    </clipPath>
    <clipPath id="b">
      <rect width="50" height="50" rx="25" fill="#fff" />
    </clipPath>
    <linearGradient id="c" x1="-.106" y1="50.221" x2="53.635" y2="3.7" gradientUnits="userSpaceOnUse">
      <stop stop-color="#FD5" />
      <stop offset=".5" stop-color="#FF543E" />
      <stop offset="1" stop-color="#C837AB" />
    </linearGradient>
  </defs>
</svg>